<svg width="78" height="69" viewBox="0 0 78 69" fill="none" xmlns="http://www.w3.org/2000/svg">
<path d="M68.1598 24.6017C67.0312 10.8481 55.4775 0 41.4375 0C28.977 0 18.2288 8.08641 15.1235 19.5H14.625C6.56053 19.5 0 26.0605 0 34.125C0 42.1895 6.56053 48.75 14.625 48.75H29.25C29.8965 48.75 30.5165 48.4932 30.9736 48.0361C31.4307 47.579 31.6875 46.959 31.6875 46.3125C31.6875 45.666 31.4307 45.046 30.9736 44.5889C30.5165 44.1318 29.8965 43.875 29.25 43.875H14.625C9.24909 43.875 4.875 39.5009 4.875 34.125C4.875 28.7491 9.24909 24.375 14.625 24.375H17.0625C17.6308 24.3751 18.1814 24.1767 18.6189 23.8139C19.0564 23.4512 19.3534 22.947 19.4586 22.3884C21.3647 12.2399 30.6089 4.875 41.4375 4.875C53.5336 4.875 63.375 14.7164 63.375 26.8125C63.375 27.459 63.6318 28.079 64.0889 28.5361C64.546 28.9932 65.166 29.25 65.8125 29.25C69.8453 29.25 73.125 32.5297 73.125 36.5625C73.125 40.5953 69.8453 43.875 65.8125 43.875H48.75C48.1035 43.875 47.4835 44.1318 47.0264 44.5889C46.5693 45.046 46.3125 45.666 46.3125 46.3125C46.3125 46.959 46.5693 47.579 47.0264 48.0361C47.4835 48.4932 48.1035 48.75 48.75 48.75H65.8125C72.5327 48.75 78 43.2827 78 36.5625C78 30.6455 73.76 25.6986 68.1598 24.6017Z" fill="#949494"/>
<path d="M39.03 68.2495C39.6764 68.2495 40.2964 67.9927 40.7535 67.5356C41.2106 67.0784 41.4675 66.4584 41.4675 65.812V32.6973L47.0566 38.2853C47.5332 38.7618 48.156 38.9995 48.78 38.9995C49.404 38.9995 50.0267 38.7618 50.5033 38.2853C50.9602 37.8282 51.2169 37.2083 51.2169 36.562C51.2169 35.9156 50.9602 35.2958 50.5033 34.8387L40.7533 25.0887C40.2962 24.6317 39.6763 24.375 39.03 24.375C38.3836 24.375 37.7637 24.6317 37.3066 25.0887L27.5566 34.8387C27.3238 35.0635 27.1381 35.3325 27.0104 35.6299C26.8826 35.9273 26.8154 36.2471 26.8126 36.5708C26.8098 36.8944 26.8715 37.2154 26.994 37.5149C27.1166 37.8145 27.2976 38.0866 27.5264 38.3155C27.7553 38.5444 28.0274 38.7254 28.327 38.8479C28.6266 38.9705 28.9475 39.0322 29.2712 39.0293C29.5948 39.0265 29.9147 38.9593 30.2121 38.8315C30.5094 38.7038 30.7784 38.5181 31.0033 38.2853L36.5925 32.6973V65.812C36.5925 66.4584 36.8493 67.0784 37.3064 67.5356C37.7635 67.9927 38.3835 68.2495 39.03 68.2495Z" fill="#949494"/>
</svg>
