<svg width="16" height="16" viewBox="0 0 16 16" fill="none" xmlns="http://www.w3.org/2000/svg">
<path d="M8.00004 9.4463C6.58004 9.4463 5.42004 8.29297 5.42004 6.8663C5.42004 5.43964 6.58004 4.29297 8.00004 4.29297C9.42004 4.29297 10.58 5.4463 10.58 6.87297C10.58 8.29964 9.42004 9.4463 8.00004 9.4463ZM8.00004 5.29297C7.13338 5.29297 6.42004 5.99964 6.42004 6.87297C6.42004 7.7463 7.12671 8.45297 8.00004 8.45297C8.87338 8.45297 9.58004 7.7463 9.58004 6.87297C9.58004 5.99964 8.86671 5.29297 8.00004 5.29297Z" fill="white"/>
<path d="M8 15.174C7.01333 15.174 6.01999 14.8007 5.24666 14.0607C3.28 12.1673 1.10666 9.14732 1.92666 5.55398C2.66666 2.29398 5.51333 0.833984 8 0.833984C8 0.833984 8 0.833984 8.00666 0.833984C10.4933 0.833984 13.34 2.29398 14.08 5.56065C14.8933 9.15399 12.72 12.1673 10.7533 14.0607C9.97999 14.8007 8.98666 15.174 8 15.174ZM8 1.83398C6.06 1.83398 3.56666 2.86732 2.90666 5.77398C2.18666 8.91398 4.16 11.6207 5.94666 13.334C7.1 14.4473 8.90666 14.4473 10.06 13.334C11.84 11.6207 13.8133 8.91398 13.1067 5.77398C12.44 2.86732 9.93999 1.83398 8 1.83398Z" fill="white"/>
</svg>
