<svg width="18" height="24" viewBox="0 0 18 24" fill="none" xmlns="http://www.w3.org/2000/svg">
<g clip-path="url(#clip0_49_1334)">
<path fill-rule="evenodd" clip-rule="evenodd" d="M8.69963 19.1515C6.64343 19.6138 4.30675 20.637 3.4454 22.3646C2.58405 24.0921 -3.40838e-06 24.9558 0 22.3646C2.9624e-06 19.7734 5.16809 4.22651 6.89079 1.63536C8.61349 -0.955788 10.3362 -0.0920665 10.3362 1.63525C10.3362 2.34005 9.40408 5.36578 8.3005 8.7011C9.22526 9.29694 10.8914 9.75019 12.1383 10.0307C12.0093 9.50681 12.0464 8.9555 12.2447 8.45379C12.4429 7.95209 12.7923 7.52502 13.2441 7.23221C13.6959 6.93941 14.2275 6.79548 14.7647 6.82052C15.302 6.84556 15.818 7.03833 16.2408 7.3719C16.6636 7.70547 16.972 8.16321 17.1231 8.68119C17.2741 9.19918 17.2602 9.75157 17.0833 10.2612C16.9064 10.7709 16.5753 11.2124 16.1363 11.5242C15.6972 11.8359 15.1721 12.0022 14.6343 12H14.2212C12.0694 11.9971 8.17917 10.1517 8.17917 10.1517L7.77737 10.2682C6.30227 14.6514 4.73742 19.0306 4.73742 19.0306C6.52633 17.8284 8.6306 17.1852 10.7841 17.1823H11.1975C11.7358 17.18 12.2613 17.3464 12.7006 17.6581C13.14 17.9698 13.4714 18.4114 13.6484 18.921C13.8255 19.4307 13.8394 19.9831 13.6882 20.5011C13.5371 21.0191 13.2284 21.4768 12.8053 21.8104C12.3821 22.144 11.8657 22.3367 11.3281 22.3618C10.7904 22.3868 10.2584 22.2429 9.80625 21.9501C9.35412 21.6573 9.00445 21.2302 8.80606 20.7285C8.60767 20.2268 8.57046 19.6755 8.69963 19.1515Z" fill="url(#paint0_linear_49_1334)"/>
</g>
<defs>
<linearGradient id="paint0_linear_49_1334" x1="0.861349" y1="2.19941e-07" x2="13.8496" y2="20.7174" gradientUnits="userSpaceOnUse">
<stop offset="0.0825296" stop-color="#F5DE78"/>
<stop offset="0.541881" stop-color="#B5812D"/>
<stop offset="1" stop-color="#F5DE78"/>
</linearGradient>
<clipPath id="clip0_49_1334">
<rect width="17.227" height="24" fill="white"/>
</clipPath>
</defs>
</svg>
