<svg width="23" height="32" viewBox="0 0 23 32" fill="none" xmlns="http://www.w3.org/2000/svg">
<path fill-rule="evenodd" clip-rule="evenodd" d="M11.5995 25.5354C8.85791 26.1518 5.74233 27.516 4.59386 29.8194C3.44539 32.1228 -5.18028e-06 33.2744 0 29.8194C3.31409e-06 26.3645 6.89079 5.63535 9.18773 2.18048C11.4847 -1.27438 13.7816 -0.122755 13.7816 2.18034C13.7816 3.12006 12.5388 7.15437 11.0673 11.6015C12.3003 12.3959 14.5219 13.0002 16.1844 13.3743C16.0123 12.6757 16.0619 11.9407 16.3262 11.2717C16.5906 10.6028 17.0564 10.0334 17.6588 9.64295C18.2612 9.25254 18.97 9.06064 19.6863 9.09403C20.4026 9.12742 21.0907 9.38443 21.6544 9.8292C22.2181 10.274 22.6294 10.8843 22.8308 11.5749C23.0322 12.2656 23.0136 13.0021 22.7777 13.6817C22.5418 14.3612 22.1004 14.9499 21.515 15.3655C20.9296 15.7812 20.2295 16.003 19.5124 16H18.9616C16.0925 15.9961 10.9056 13.5355 10.9056 13.5355L10.3698 13.6909C8.40303 19.5352 6.31656 25.3742 6.31656 25.3742C8.70177 23.7712 11.5075 22.9135 14.3788 22.9097H14.9301C15.6477 22.9067 16.3483 23.1285 16.9342 23.5442C17.52 23.9598 17.9618 24.5485 18.1979 25.228C18.4339 25.9076 18.4525 26.6441 18.251 27.3348C18.0494 28.0254 17.6378 28.6357 17.0737 29.0805C16.5095 29.5253 15.8209 29.7823 15.1041 29.8157C14.3872 29.8491 13.6778 29.6572 13.075 29.2668C12.4722 28.8764 12.0059 28.3069 11.7414 27.638C11.4769 26.969 11.4273 26.234 11.5995 25.5354Z" fill="url(#paint0_linear_2743_1884)"/>
<defs>
<linearGradient id="paint0_linear_2743_1884" x1="1.14847" y1="2.93255e-07" x2="18.4661" y2="27.6232" gradientUnits="userSpaceOnUse">
<stop stop-color="white"/>
</linearGradient>
</defs>
</svg>
