<svg width="67" height="52" viewBox="0 0 67 52" fill="none" xmlns="http://www.w3.org/2000/svg">
<path d="M12.1804 51.8232V48.3761C12.1804 47.0544 11.3759 46.1929 9.9969 46.1929C9.30754 46.1929 8.56059 46.4226 8.04344 47.1696C7.64144 46.5375 7.06696 46.1929 6.20512 46.1929C5.63039 46.1929 5.05618 46.3651 4.59634 46.9971V46.3078H3.38981V51.8232H4.59634V48.7781C4.59634 47.8016 5.11349 47.3418 5.91802 47.3418C6.72202 47.3418 7.12454 47.859 7.12454 48.7781V51.8232H8.33106V48.7781C8.33106 47.8016 8.90528 47.3418 9.65222 47.3418C10.4567 47.3418 10.8587 47.859 10.8587 48.7781V51.8232H12.1804ZM30.0482 46.3078H28.095V44.6416H26.8885V46.3078H25.7969V47.3991H26.8882V49.9273C26.8882 51.1914 27.4054 51.9381 28.7844 51.9381C29.3015 51.9381 29.8758 51.7659 30.2783 51.5361L29.9333 50.5018C29.5886 50.7316 29.1866 50.7892 28.8993 50.7892C28.3248 50.7892 28.095 50.4445 28.095 49.8697V47.3991H30.0482V46.3078ZM40.2751 46.1926C39.5858 46.1926 39.1262 46.5375 38.8388 46.9971V46.3078H37.6323V51.8232H38.8388V48.7208C38.8388 47.8016 39.2408 47.2845 39.9878 47.2845C40.2176 47.2845 40.5049 47.3421 40.7347 47.3994L41.0794 46.2504C40.8496 46.1929 40.5049 46.1926 40.2751 46.1926ZM24.8201 46.7673C24.2454 46.3651 23.4411 46.1929 22.5793 46.1929C21.2006 46.1929 20.2814 46.8822 20.2814 47.9739C20.2814 48.8933 20.9708 49.4102 22.1773 49.5826L22.7518 49.6402C23.3838 49.7548 23.7285 49.9273 23.7285 50.2147C23.7285 50.6167 23.2689 50.9041 22.4644 50.9041C21.6601 50.9041 21.0281 50.6167 20.6258 50.3296L20.0514 51.2487C20.6834 51.7083 21.5452 51.9381 22.4068 51.9381C24.0156 51.9381 24.935 51.1914 24.935 50.1571C24.935 49.1804 24.1881 48.6632 23.0389 48.491L22.4644 48.4334C21.9472 48.3759 21.5452 48.2612 21.5452 47.9165C21.5452 47.5143 21.9472 47.2845 22.5793 47.2845C23.2689 47.2845 23.9583 47.5716 24.303 47.7441L24.8201 46.7673ZM56.8794 46.1929C56.1897 46.1929 55.7302 46.5375 55.4428 46.9971V46.3078H54.2363V51.8232H55.4428V48.7208C55.4428 47.8016 55.8451 47.2845 56.5917 47.2845C56.8218 47.2845 57.1092 47.3421 57.3389 47.3994L57.6836 46.2504C57.4538 46.1929 57.1092 46.1929 56.8794 46.1929ZM41.4817 49.0655C41.4817 50.7316 42.6306 51.9381 44.4119 51.9381C45.2161 51.9381 45.7906 51.7659 46.3651 51.3063L45.7906 50.3296C45.331 50.6743 44.8714 50.8465 44.3543 50.8465C43.3776 50.8465 42.6882 50.1571 42.6882 49.0655C42.6882 48.0314 43.3776 47.3418 44.3543 47.2845C44.8714 47.2845 45.331 47.4567 45.7906 47.8016L46.3651 46.8249C45.7906 46.3651 45.2161 46.1929 44.4119 46.1929C42.6306 46.1929 41.4817 47.3994 41.4817 49.0655ZM52.6277 46.3078H51.4212V46.9971C51.019 46.4802 50.4445 46.1929 49.6975 46.1929C48.1463 46.1929 46.9398 47.3994 46.9398 49.0655C46.9398 50.7316 48.1463 51.9381 49.6975 51.9381C50.5018 51.9381 51.0765 51.651 51.4212 51.1338V51.8232H52.6277V46.3078ZM48.2037 49.0655C48.2037 48.0887 48.8357 47.2845 49.8698 47.2845C50.8465 47.2845 51.5361 48.0314 51.5361 49.0655C51.5361 50.0422 50.8465 50.8465 49.8698 50.8465C48.8357 50.7889 48.2037 50.0422 48.2037 49.0655ZM33.7829 46.1929C32.1742 46.1929 31.025 47.3418 31.025 49.0655C31.025 50.7892 32.1739 51.9381 33.8403 51.9381C34.6445 51.9381 35.4491 51.7083 36.0811 51.1914L35.5064 50.3296C35.0468 50.6743 34.4723 50.9041 33.8978 50.9041C33.1509 50.9041 32.404 50.5594 32.2315 49.5824H36.3109V49.1231C36.3685 47.3418 35.3344 46.1929 33.7829 46.1929ZM33.7829 47.2269C34.5296 47.2269 35.0471 47.6867 35.1617 48.5486H32.2891C32.404 47.8016 32.9211 47.2269 33.7829 47.2269ZM63.7162 44.1245H62.5097V46.9971C62.1075 46.4802 61.533 46.1929 60.786 46.1929C59.2348 46.1929 58.0283 47.3994 58.0283 49.0655C58.0283 50.7316 59.2348 51.9381 60.786 51.9381C61.5906 51.9381 62.165 51.651 62.5097 51.1338V51.8232H63.7162V44.1245ZM59.2924 49.0655C59.2924 48.0887 59.9242 47.2845 60.9585 47.2845C61.9352 47.2845 62.6246 48.0314 62.6246 49.0655C62.6246 50.0422 61.9352 50.8465 60.9585 50.8465C59.9242 50.7889 59.2924 50.0422 59.2924 49.0655ZM18.9597 46.3078H17.7532V46.9971C17.3509 46.4802 16.7765 46.1929 16.0295 46.1929C14.4783 46.1929 13.2718 47.3994 13.2718 49.0655C13.2718 50.7316 14.4783 51.9381 16.0295 51.9381C16.834 51.9381 17.4085 51.651 17.7532 51.1338V51.8232H18.9597V46.3078ZM14.4783 49.0655C14.4783 48.0887 15.1104 47.2845 16.1444 47.2845C17.1211 47.2845 17.8108 48.0314 17.8108 49.0655C17.8108 50.0422 17.1211 50.8465 16.1444 50.8465C15.1104 50.7889 14.4783 50.0422 14.4783 49.0655Z" fill="black"/>
<path d="M24.4178 4.42381H42.5157V36.9426H24.4178V4.42381Z" fill="#FF5F00"/>
<path d="M25.567 20.6834C25.567 14.0763 28.6695 8.21587 33.438 4.42383C29.9336 1.6661 25.5097 0 20.6836 0C9.24992 0 0 9.24992 0 20.6834C0 32.1166 9.24992 41.3667 20.6834 41.3667C25.5095 41.3667 29.9333 39.7006 33.438 36.9426C28.6695 33.2082 25.567 27.2905 25.567 20.6834Z" fill="#EB001B"/>
<path d="M66.9338 20.6834C66.9338 32.1166 57.6839 41.3667 46.2504 41.3667C41.4243 41.3667 37.0005 39.7006 33.4958 36.9426C38.3219 33.1509 41.367 27.2905 41.367 20.6834C41.367 14.0763 38.2643 8.21587 33.4958 4.42383C37.0002 1.6661 41.4243 0 46.2504 0C57.6839 0 66.9338 9.3075 66.9338 20.6834Z" fill="#F79E1B"/>
</svg>
