<svg width="15" height="10" viewBox="0 0 15 10" fill="none" xmlns="http://www.w3.org/2000/svg">
<path fill-rule="evenodd" clip-rule="evenodd" d="M0.43865 0.507792C0.719602 0.195968 1.1006 0.0207945 1.49787 0.0207945C1.89514 0.0207945 2.27614 0.195968 2.55709 0.507792L7.49063 5.9851L12.4242 0.507792C12.5624 0.348928 12.7277 0.222213 12.9105 0.13504C13.0933 0.0478668 13.2899 0.00198197 13.4888 6.2802e-05C13.6877 -0.00185636 13.885 0.0402281 14.0691 0.123861C14.2532 0.207494 14.4205 0.331001 14.5612 0.487175C14.7019 0.643348 14.8131 0.829061 14.8884 1.03348C14.9638 1.23789 15.0017 1.45692 14.9999 1.67777C14.9982 1.89863 14.9569 2.11689 14.8784 2.31982C14.7998 2.52275 14.6857 2.70629 14.5426 2.85972L8.54986 9.513C8.2689 9.82483 7.8879 10 7.49063 10C7.09337 10 6.71237 9.82483 6.43141 9.513L0.43865 2.85972C0.157783 2.54781 0 2.12481 0 1.68376C0 1.24271 0.157783 0.819711 0.43865 0.507792Z" fill="#949494"/>
</svg>
