<svg width="91" height="30" viewBox="0 0 91 30" fill="none" xmlns="http://www.w3.org/2000/svg">
<path d="M47.063 9.39433C47.0111 13.4879 50.7112 15.7721 53.4984 17.1304C56.3621 18.5238 57.324 19.4175 57.3126 20.6638C57.2913 22.5708 55.0283 23.4126 52.9108 23.4453C49.2164 23.5025 47.0683 22.4478 45.3607 21.6502L44.0298 27.8776C45.7431 28.6671 48.9157 29.3557 52.2056 29.3859C59.9281 29.3859 64.9804 25.5738 65.0078 19.6635C65.038 12.1624 54.6324 11.7472 54.7034 8.39439C54.728 7.37775 55.698 6.29286 57.8237 6.01702C58.8759 5.87768 61.7805 5.77103 65.0735 7.28746L66.366 1.26227C64.5951 0.61745 62.319 0 59.4852 0C52.2166 0 47.1042 3.86394 47.063 9.39433ZM78.7854 0.518984C77.3752 0.518984 76.1869 1.34154 75.6565 2.60381L64.6253 28.9433H72.3422L73.8778 24.6994H83.3077L84.1985 28.9433H91L85.0647 0.518984H78.7854ZM79.8649 8.19746L82.092 18.8711H75.9928L79.8649 8.19746ZM37.7067 0.519339L31.6239 28.943H38.9775L45.0574 0.518629L37.7067 0.519339ZM26.8283 0.518629L19.1743 19.8657L16.0782 3.4157C15.7149 1.57935 14.2802 0.518984 12.687 0.518984H0.175246L0 1.34438C2.56862 1.90176 5.48702 2.80074 7.25512 3.76264C8.33716 4.35023 8.64571 4.86388 9.00118 6.26016L14.8653 28.9433H22.6362L34.5501 0.518984L26.8283 0.518629Z" fill="url(#paint0_linear_592_3518)"/>
<defs>
<linearGradient id="paint0_linear_592_3518" x1="41.8363" y1="29.9753" x2="42.6869" y2="-0.204393" gradientUnits="userSpaceOnUse">
<stop stop-color="#222357"/>
<stop offset="1" stop-color="#254AA5"/>
</linearGradient>
</defs>
</svg>
